<?xml version="1.0" encoding="UTF-8" standalone="no"?>
<!DOCTYPE svg PUBLIC "-//W3C//DTD SVG 1.1//EN" "http://www.w3.org/Graphics/SVG/1.1/DTD/svg11.dtd">
<svg xmlns="http://www.w3.org/2000/svg" version="1.1" width="0" height="0">
  <clipPath id="clipWavefillgauge">
    <path d="M0,308.58525L7.5375000000000005,308.58525L15.075000000000001,308.58525L22.6125,308.58525L30.150000000000002,308.58525L37.6875,308.58525L45.225,308.58525L52.762499999999996,308.58525L60.300000000000004,308.58525L67.8375,308.58525L75.375,308.58525L82.91250000000001,308.58525L90.45,308.58525L97.9875,308.58525L105.52499999999999,308.58525L113.0625,308.58525L120.60000000000001,308.58525L128.1375,308.58525L135.675,308.58525L143.2125,308.58525L150.75,308.58525L158.2875,308.58525L165.82500000000002,308.58525L173.36249999999998,308.58525L180.9,308.58525L188.4375,308.58525L195.975,308.58525L203.51250000000002,308.58525L211.04999999999998,308.58525L218.5875,308.58525L226.125,308.58525L233.6625,308.58525L241.20000000000002,308.58525L248.73749999999998,308.58525L256.275,308.58525L263.8125,308.58525L271.35,308.58525L278.8875,308.58525L286.425,308.58525L293.9625,308.58525L301.5,308.58525L309.03749999999997,308.58525L316.575,308.58525L324.1125,308.58525L331.65000000000003,308.58525L339.1875,308.58525L346.72499999999997,308.58525L354.2625,308.58525L361.8,308.58525L369.33750000000003,308.58525L376.875,308.58525L384.41249999999997,308.58525L391.95,308.58525L399.4875,308.58525L407.02500000000003,308.58525L414.5625,308.58525L422.09999999999997,308.58525L429.6375,308.58525L437.175,308.58525L444.71250000000003,308.58525L452.25,308.58525L459.78749999999997,308.58525L467.325,308.58525L474.8625,308.58525L482.40000000000003,308.58525L489.9375,308.58525L497.47499999999997,308.58525L505.0125,308.58525L512.55,308.58525L520.0875,308.58525L527.625,308.58525L535.1625,308.58525L542.7,308.58525L550.2375,308.58525L557.775,308.58525L565.3125,308.58525L572.85,308.58525L580.3875,308.58525L587.925,308.58525L595.4625,308.58525L603,308.58525L603,-3.470771493463514e-15L595.4625,-1.108377293426293L587.925,-2.1894626593950997L580.3875,-3.2166361882796215L572.85,-4.164605458805248L565.3125,-5.010028321401992L557.775,-5.7320876593950985L550.2375,-6.313003975505638L542.7,-6.738473182080239L535.1625,-6.998018815201701L527.625,-7.08525L520.0875,-6.9980188152017L512.55,-6.738473182080236L505.0125,-6.3130039755056355L497.47499999999997,-5.732087659395095L489.9375,-5.010028321401989L482.40000000000003,-4.1646054588052435L474.8625,-3.2166361882796157L467.325,-2.189462659395094L459.78749999999997,-1.108377293426287L452.25,2.6030786200976353e-15L444.71250000000003,1.108377293426292L437.175,2.1894626593950988L429.6375,3.2166361882796206L422.09999999999997,4.164605458805247L414.5625,5.010028321401992L407.02500000000003,5.732087659395098L399.4875,6.313003975505638L391.95,6.738473182080238L384.41249999999997,6.998018815201701L376.875,7.08525L369.33750000000003,6.9980188152017L361.8,6.738473182080237L354.2625,6.313003975505633L346.72499999999997,5.732087659395092L339.1875,5.010028321401985L331.65000000000003,4.164605458805249L324.1125,3.2166361882796224L316.575,2.1894626593950948L309.03749999999997,1.1083772934262877L301.5,-1.735385746731757e-15L293.9625,-1.1083772934262976L286.425,-2.189462659395098L278.8875,-3.2166361882796255L271.35,-4.164605458805247L263.8125,-5.010028321401987L256.275,-5.732087659395098L248.73749999999998,-6.313003975505635L241.20000000000002,-6.738473182080238L233.6625,-6.9980188152017L226.125,-7.08525L218.5875,-6.998018815201699L211.04999999999998,-6.738473182080237L203.51250000000002,-6.313003975505633L195.975,-5.732087659395096L188.4375,-5.010028321401985L180.9,-4.164605458805244L173.36249999999998,-3.21663618827962L165.82500000000002,-2.1894626593950983L158.2875,-1.1083772934262948L150.75,8.676928733658785e-16L143.2125,1.1083772934262965L135.675,2.189462659395097L128.1375,3.2166361882796246L120.60000000000001,4.164605458805246L113.0625,5.010028321401986L105.52499999999999,5.732087659395097L97.9875,6.313003975505634L90.45,6.738473182080238L82.91250000000001,6.998018815201699L75.375,7.08525L67.8375,6.9980188152017L60.300000000000004,6.738473182080237L52.762499999999996,6.313003975505633L45.225,5.732087659395097L37.6875,5.010028321401985L30.150000000000002,4.164605458805245L22.6125,3.2166361882796237L15.075000000000001,2.189462659395096L7.5375000000000005,1.1083772934262959L0,0Z" transform="translate(1,0)">
    </path>
  </clipPath>
</svg>